<svg width="20" height="20" viewBox="0 0 20 20" fill="none" xmlns="http://www.w3.org/2000/svg">
<path d="M1 12V13C1 14.91 2.07 16.57 3.65 17.41L3 20H5L5.5 18C5.67 18 5.83 18 6 18H14C14.17 18 14.33 18 14.5 18L15 20H17L16.35 17.41C17.93 16.57 19 14.91 19 13V12H20V10H2V3C2 2.73478 2.10536 2.48043 2.29289 2.29289C2.48043 2.10536 2.73478 2 3 2C3.5 2 3.88 2.34 4 2.79C3.37 3.33 3 4.13 3 5H9C9 4.20435 8.68393 3.44129 8.12132 2.87868C7.55871 2.31607 6.79565 2 6 2C5.94 2 5.89 2 5.83 2C5.42 0.84 4.31 0 3 0C2.20435 0 1.44129 0.316071 0.878679 0.87868C0.31607 1.44129 0 2.20435 0 3V12H1ZM3 12H17V13C17 13.7956 16.6839 14.5587 16.1213 15.1213C15.5587 15.6839 14.7956 16 14 16H6C5.20435 16 4.44129 15.6839 3.87868 15.1213C3.31607 14.5587 3 13.7956 3 13V12Z" fill="#393838"/>
</svg>
