<svg width="28" height="40" viewBox="0 0 28 40" fill="none" xmlns="http://www.w3.org/2000/svg">
<path d="M14 9C15.3261 9 16.5979 9.52678 17.5355 10.4645C18.4732 11.4021 19 12.6739 19 14C19 14.6566 18.8707 15.3068 18.6194 15.9134C18.3681 16.52 17.9998 17.0712 17.5355 17.5355C17.0712 17.9998 16.52 18.3681 15.9134 18.6194C15.3068 18.8707 14.6566 19 14 19C12.6739 19 11.4021 18.4732 10.4645 17.5355C9.52678 16.5979 9 15.3261 9 14C9 12.6739 9.52678 11.4021 10.4645 10.4645C11.4021 9.52678 12.6739 9 14 9ZM14 0C17.713 0 21.274 1.475 23.8995 4.1005C26.525 6.72601 28 10.287 28 14C28 24.5 14 40 14 40C14 40 0 24.5 0 14C0 10.287 1.475 6.72601 4.1005 4.1005C6.72601 1.475 10.287 0 14 0ZM14 4C11.3478 4 8.8043 5.05357 6.92893 6.92893C5.05357 8.8043 4 11.3478 4 14C4 16 4 20 14 33.42C24 20 24 16 24 14C24 11.3478 22.9464 8.8043 21.0711 6.92893C19.1957 5.05357 16.6522 4 14 4Z" fill="#FC0000"/>
</svg>
