<svg width="33" height="40" viewBox="0 0 33 40" fill="none" xmlns="http://www.w3.org/2000/svg">
<path d="M29.3333 3.63636V36.3636H18.3333V30H14.6667V36.3636H3.66667V3.63636H29.3333ZM22 10.9091H25.6667V7.27273H22V10.9091ZM14.6667 10.9091H18.3333V7.27273H14.6667V10.9091ZM7.33333 10.9091H11V7.27273H7.33333V10.9091ZM22 18.1818H25.6667V14.5455H22V18.1818ZM14.6667 18.1818H18.3333V14.5455H14.6667V18.1818ZM7.33333 18.1818H11V14.5455H7.33333V18.1818ZM22 25.4545H25.6667V21.8182H22V25.4545ZM14.6667 25.4545H18.3333V21.8182H14.6667V25.4545ZM7.33333 25.4545H11V21.8182H7.33333V25.4545ZM22 32.7273H25.6667V29.0909H22V32.7273ZM7.33333 32.7273H11V29.0909H7.33333V32.7273ZM33 0H0V40H33V0Z" fill="#FC0000"/>
</svg>
