<svg width="40" height="23" viewBox="0 0 40 23" fill="none" xmlns="http://www.w3.org/2000/svg">
<path d="M35 21.3571H25V16.4286H22.1667C20.3333 20.3714 16.1667 23 11.6667 23C5.16667 23 0 17.9071 0 11.5C0 5.09286 5.16667 0 11.6667 0C16.1667 0 20.3333 2.62857 22.1667 6.57143H40V16.4286H35V21.3571ZM28.3333 18.0714H31.6667V13.1429H36.6667V9.85714H19.8333L19.5 8.70714C18.3333 5.42143 15.1667 3.28571 11.6667 3.28571C7 3.28571 3.33333 6.9 3.33333 11.5C3.33333 16.1 7 19.7143 11.6667 19.7143C15.1667 19.7143 18.3333 17.5786 19.5 14.2929L19.8333 13.1429H28.3333V18.0714ZM11.6667 16.4286C8.83333 16.4286 6.66667 14.2929 6.66667 11.5C6.66667 8.70714 8.83333 6.57143 11.6667 6.57143C14.5 6.57143 16.6667 8.70714 16.6667 11.5C16.6667 14.2929 14.5 16.4286 11.6667 16.4286ZM11.6667 9.85714C10.6667 9.85714 10 10.5143 10 11.5C10 12.4857 10.6667 13.1429 11.6667 13.1429C12.6667 13.1429 13.3333 12.4857 13.3333 11.5C13.3333 10.5143 12.6667 9.85714 11.6667 9.85714Z" fill="#FC0000"/>
</svg>
