<svg width="16" height="21" viewBox="0 0 16 21" fill="none" xmlns="http://www.w3.org/2000/svg">
<path d="M2 19V9H14V19H2ZM2 7C1.46957 7 0.96086 7.21071 0.585787 7.58579C0.210714 7.96086 0 8.46957 0 9V19C0 19.5304 0.210714 20.0391 0.585787 20.4142C0.96086 20.7893 1.46957 21 2 21H14C15.11 21 16 20.1 16 19V9C16 8.46957 15.7893 7.96086 15.4142 7.58579C15.0391 7.21071 14.5304 7 14 7H5V5C5 4.20435 5.31607 3.44129 5.87868 2.87868C6.44129 2.31607 7.20435 2 8 2C8.79565 2 9.55871 2.31607 10.1213 2.87868C10.6839 3.44129 11 4.20435 11 5H13C13 3.67392 12.4732 2.40215 11.5355 1.46447C10.5979 0.526784 9.32608 0 8 0C7.34339 0 6.69321 0.129329 6.08658 0.380602C5.47996 0.631876 4.92876 1.00017 4.46447 1.46447C4.00017 1.92876 3.63188 2.47995 3.3806 3.08658C3.12933 3.69321 3 4.34339 3 5V7H2ZM8 16C8.53043 16 9.03914 15.7893 9.41421 15.4142C9.78929 15.0391 10 14.5304 10 14C10 13.4696 9.78929 12.9609 9.41421 12.5858C9.03914 12.2107 8.53043 12 8 12C7.46957 12 6.96086 12.2107 6.58579 12.5858C6.21071 12.9609 6 13.4696 6 14C6 14.5304 6.21071 15.0391 6.58579 15.4142C6.96086 15.7893 7.46957 16 8 16Z" fill="white" fill-opacity="0.6"/>
</svg>
