<svg width="26" height="26" viewBox="89 0 27 26" fill="none" xmlns="http://www.w3.org/2000/svg">
<path d="M115.924 3.82542C114.943 4.27168 113.884 4.56493 112.788 4.70518C113.91 4.02943 114.777 2.95841 115.185 1.67065C114.127 2.30815 112.954 2.75441 111.717 3.00941C110.709 1.9129 109.294 1.27539 107.688 1.27539C104.691 1.27539 102.243 3.72342 102.243 6.74521C102.243 7.17872 102.294 7.59947 102.384 7.99473C97.8446 7.76522 93.8028 5.58495 91.1125 2.28265C90.6407 3.08591 90.373 4.02943 90.373 5.02394C90.373 6.92371 91.3293 8.60673 92.8083 9.563C91.903 9.563 91.0615 9.30799 90.322 8.92549C90.322 8.92549 90.322 8.92549 90.322 8.96374C90.322 11.6158 92.209 13.8343 94.708 14.3316C94.249 14.4591 93.7645 14.5228 93.2673 14.5228C92.923 14.5228 92.5788 14.4846 92.2473 14.4208C92.9358 16.5756 94.9375 18.1821 97.3473 18.2204C95.4858 19.6994 93.127 20.5664 90.5515 20.5664C90.118 20.5664 89.6845 20.5409 89.251 20.4899C91.6735 22.0454 94.555 22.9507 97.6406 22.9507C107.688 22.9507 113.209 14.6121 113.209 7.38272C113.209 7.14047 113.209 6.91096 113.196 6.66871C114.267 5.9037 115.185 4.93469 115.924 3.82542Z" fill="white"/>
</svg>
