<svg width="26" height="26" viewBox="44 0 27 26" fill="none" xmlns="http://www.w3.org/2000/svg">
<path d="M52.0211 0H62.7312C66.8113 0 70.1263 3.31504 70.1263 7.39509V18.1052C70.1263 20.0665 69.3472 21.9475 67.9603 23.3344C66.5735 24.7212 64.6925 25.5003 62.7312 25.5003H52.0211C47.941 25.5003 44.626 22.1853 44.626 18.1052V7.39509C44.626 5.43379 45.4051 3.55282 46.7919 2.16597C48.1788 0.779124 50.0598 0 52.0211 0ZM51.7661 2.55003C50.5487 2.55003 49.3812 3.03363 48.5204 3.89443C47.6596 4.75523 47.176 5.92273 47.176 7.14009V18.3602C47.176 20.8975 49.2288 22.9503 51.7661 22.9503H62.9862C64.2036 22.9503 65.3711 22.4667 66.2319 21.6059C67.0927 20.7451 67.5763 19.5776 67.5763 18.3602V7.14009C67.5763 4.60281 65.5235 2.55003 62.9862 2.55003H51.7661ZM64.07 4.46256C64.4927 4.46256 64.8981 4.63047 65.1969 4.92936C65.4958 5.22825 65.6637 5.63363 65.6637 6.05633C65.6637 6.47902 65.4958 6.8844 65.1969 7.18329C64.8981 7.48218 64.4927 7.6501 64.07 7.6501C63.6473 7.6501 63.2419 7.48218 62.943 7.18329C62.6441 6.8844 62.4762 6.47902 62.4762 6.05633C62.4762 5.63363 62.6441 5.22825 62.943 4.92936C63.2419 4.63047 63.6473 4.46256 64.07 4.46256ZM57.3761 6.37508C59.0669 6.37508 60.6884 7.04674 61.884 8.2423C63.0796 9.43786 63.7512 11.0594 63.7512 12.7502C63.7512 14.4409 63.0796 16.0625 61.884 17.258C60.6884 18.4536 59.0669 19.1252 57.3761 19.1252C55.6854 19.1252 54.0638 18.4536 52.8683 17.258C51.6727 16.0625 51.0011 14.4409 51.0011 12.7502C51.0011 11.0594 51.6727 9.43786 52.8683 8.2423C54.0638 7.04674 55.6854 6.37508 57.3761 6.37508ZM57.3761 8.92511C56.3617 8.92511 55.3888 9.32811 54.6714 10.0454C53.9541 10.7628 53.5511 11.7357 53.5511 12.7502C53.5511 13.7646 53.9541 14.7375 54.6714 15.4549C55.3888 16.1722 56.3617 16.5752 57.3761 16.5752C58.3906 16.5752 59.3635 16.1722 60.0809 15.4549C60.7982 14.7375 61.2012 13.7646 61.2012 12.7502C61.2012 11.7357 60.7982 10.7628 60.0809 10.0454C59.3635 9.32811 58.3906 8.92511 57.3761 8.92511Z" fill="white"/>
</svg>
