<svg width="26" height="26" viewBox="0 0 26 26" fill="none" xmlns="http://www.w3.org/2000/svg">
<path d="M12.7502 0C5.73757 0 0 5.72482 0 12.7757C0 19.1507 4.66656 24.4421 10.7611 25.3983V16.4732H7.5226V12.7757H10.7611V9.95788C10.7611 6.75759 12.6609 4.99806 15.5807 4.99806C16.9705 4.99806 18.424 5.24032 18.424 5.24032V8.38961H16.8175C15.2364 8.38961 14.7392 9.37137 14.7392 10.3786V12.7757H18.2837L17.71 16.4732H14.7392V25.3983C17.7437 24.9238 20.4796 23.3908 22.4529 21.0761C24.4263 18.7614 25.5071 15.8174 25.5003 12.7757C25.5003 5.72482 19.7628 0 12.7502 0Z" fill="white"/>
</svg>
