<svg width="23" height="26" viewBox="135 0 23 26" fill="none" xmlns="http://www.w3.org/2000/svg">
<path d="M155.45 1.27539C156.126 1.27539 156.775 1.54405 157.253 2.02228C157.731 2.5005 158 3.14911 158 3.82542V21.6757C158 22.352 157.731 23.0006 157.253 23.4788C156.775 23.957 156.126 24.2257 155.45 24.2257H137.6C136.924 24.2257 136.275 23.957 135.797 23.4788C135.318 23.0006 135.05 22.352 135.05 21.6757V3.82542C135.05 3.14911 135.318 2.5005 135.797 2.02228C136.275 1.54405 136.924 1.27539 137.6 1.27539H155.45ZM154.813 21.0381V14.2806C154.813 13.1782 154.375 12.1209 153.595 11.3414C152.816 10.5619 151.758 10.124 150.656 10.124C149.572 10.124 148.31 10.787 147.698 11.7815V10.3663H144.141V21.0381H147.698V14.7523C147.698 13.7706 148.488 12.9673 149.47 12.9673C149.944 12.9673 150.398 13.1554 150.732 13.4901C151.067 13.8249 151.255 14.2789 151.255 14.7523V21.0381H154.813ZM139.997 8.36448C140.565 8.36448 141.11 8.1388 141.512 7.7371C141.913 7.33539 142.139 6.79056 142.139 6.22245C142.139 5.03669 141.183 4.06768 139.997 4.06768C139.425 4.06768 138.877 4.2947 138.473 4.6988C138.069 5.1029 137.842 5.65097 137.842 6.22245C137.842 7.40822 138.811 8.36448 139.997 8.36448ZM141.769 21.0381V10.3663H138.237V21.0381H141.769Z" fill="white"/>
</svg>
