<svg width="22" height="18" viewBox="0 0 22 18" fill="none" xmlns="http://www.w3.org/2000/svg">
<path d="M19 1C17.3 1 16 2.3 16 4V4.3L11 0L6 4.3V4C6 2.3 4.7 1 3 1C1.3 1 0 2.3 0 4V18H10V13C10 12.4 10.4 12 11 12C11.6 12 12 12.4 12 13V18H22V4C22 2.3 20.7 1 19 1ZM19 3C19.5 3 20 3.4 20 4V5H18V4C18 3.4 18.5 3 19 3ZM3 3C3.6 3 4 3.4 4 4V5H2V4C2 3.4 2.5 3 3 3ZM2 16V7H4V16H2ZM16 16H14V13C14 11.4 12.6 10 11 10C9.4 10 8 11.4 8 13V16H6V6.9L11 2.6L16 6.9V16ZM18 16V7H20V16H18ZM11 5.5C11.8 5.5 12.5 6.2 12.5 7C12.5 7.8 11.8 8.5 11 8.5C10.2 8.5 9.5 7.8 9.5 7C9.5 6.2 10.2 5.5 11 5.5Z" fill="#FFFFFF"/>
</svg>
