<svg width="29" height="35" viewBox="0 0 29 35" fill="none" xmlns="http://www.w3.org/2000/svg">
<path d="M25.7778 3.18182V31.8182H16.1111V26.25H12.8889V31.8182H3.22222V3.18182H25.7778ZM19.3333 9.54545H22.5556V6.36364H19.3333V9.54545ZM12.8889 9.54545H16.1111V6.36364H12.8889V9.54545ZM6.44444 9.54545H9.66667V6.36364H6.44444V9.54545ZM19.3333 15.9091H22.5556V12.7273H19.3333V15.9091ZM12.8889 15.9091H16.1111V12.7273H12.8889V15.9091ZM6.44444 15.9091H9.66667V12.7273H6.44444V15.9091ZM19.3333 22.2727H22.5556V19.0909H19.3333V22.2727ZM12.8889 22.2727H16.1111V19.0909H12.8889V22.2727ZM6.44444 22.2727H9.66667V19.0909H6.44444V22.2727ZM19.3333 28.6364H22.5556V25.4545H19.3333V28.6364ZM6.44444 28.6364H9.66667V25.4545H6.44444V28.6364ZM29 0H0V35H29V0Z" fill="white"/>
</svg>
