<svg width="58" height="34" viewBox="0 0 58 34" fill="none" xmlns="http://www.w3.org/2000/svg">
<path d="M29 0C26.7567 0 24.6053 0.895534 23.0191 2.48959C21.4328 4.08365 20.5417 6.24566 20.5417 8.5C20.5417 10.7543 21.4328 12.9163 23.0191 14.5104C24.6053 16.1045 26.7567 17 29 17C31.2433 17 33.3947 16.1045 34.9809 14.5104C36.5672 12.9163 37.4583 10.7543 37.4583 8.5C37.4583 6.24566 36.5672 4.08365 34.9809 2.48959C33.3947 0.895534 31.2433 0 29 0ZM29 4.85714C29.9614 4.85714 30.8834 5.24094 31.5633 5.92411C32.2431 6.60728 32.625 7.53385 32.625 8.5C32.625 9.46615 32.2431 10.3927 31.5633 11.0759C30.8834 11.7591 29.9614 12.1429 29 12.1429C28.0386 12.1429 27.1166 11.7591 26.4367 11.0759C25.7569 10.3927 25.375 9.46615 25.375 8.5C25.375 7.53385 25.7569 6.60728 26.4367 5.92411C27.1166 5.24094 28.0386 4.85714 29 4.85714ZM13.2917 7.28571C11.6893 7.28571 10.1526 7.92538 9.01956 9.06399C7.88653 10.2026 7.25 11.7469 7.25 13.3571C7.25 15.64 8.53083 17.6071 10.3675 18.6514C11.2375 19.1371 12.2283 19.4286 13.2917 19.4286C14.355 19.4286 15.3458 19.1371 16.2158 18.6514C17.11 18.1414 17.8592 17.4129 18.415 16.5386C16.6508 14.2314 15.7083 11.4143 15.7083 8.5C15.7083 8.28143 15.7083 8.03857 15.7083 7.82C14.9833 7.48 14.1617 7.28571 13.2917 7.28571ZM44.7083 7.28571C43.8383 7.28571 43.0167 7.48 42.2917 7.82C42.2917 8.03857 42.2917 8.28143 42.2917 8.5C42.2917 11.4143 41.3492 14.2314 39.585 16.5386C39.875 17 40.1892 17.3643 40.5517 17.7286C40.9383 18.0929 41.325 18.4086 41.7842 18.6514C42.6542 19.1371 43.645 19.4286 44.7083 19.4286C45.7717 19.4286 46.7625 19.1371 47.6325 18.6514C49.4692 17.6071 50.75 15.64 50.75 13.3571C50.75 11.7469 50.1135 10.2026 48.9804 9.06399C47.8474 7.92538 46.3107 7.28571 44.7083 7.28571ZM29 21.8571C23.345 21.8571 12.0833 24.6986 12.0833 30.3571V34H45.9167V30.3571C45.9167 24.6986 34.655 21.8571 29 21.8571ZM11.3825 23.1929C6.71833 23.7514 0 26.1314 0 30.3571V34H7.25V29.3129C7.25 26.86 8.9175 24.82 11.3825 23.1929ZM46.6175 23.1929C49.0825 24.82 50.75 26.86 50.75 29.3129V34H58V30.3571C58 26.1314 51.2817 23.7514 46.6175 23.1929ZM29 26.7143C32.6975 26.7143 36.83 27.9286 39.2225 29.1429H18.7775C21.17 27.9286 25.3025 26.7143 29 26.7143Z" fill="#FC0000"/>
</svg>
