<svg width="38" height="50" viewBox="0 0 38 50" fill="none" xmlns="http://www.w3.org/2000/svg">
<path d="M11.876 19.0488C11.9006 17.1621 12.659 15.3596 13.9897 14.0255C15.3205 12.6913 17.1182 11.9308 19 11.9062C20.8818 11.9308 22.6795 12.6913 24.0102 14.0255C25.341 15.3596 26.0994 17.1621 26.124 19.0488C26.0994 20.9354 25.341 22.7379 24.0102 24.0721C22.6795 25.4062 20.8818 26.1667 19 26.1914C17.1182 26.1667 15.3205 25.4062 13.9897 24.0721C12.659 22.7379 11.9006 20.9354 11.876 19.0488ZM19 40.4765L28.4987 42.8574V35.5243C25.6341 37.2539 22.3436 38.1447 19 38.0957C15.6564 38.1447 12.3659 37.2539 9.50129 35.5243V42.8574M19 4.76356C17.1287 4.72933 15.2701 5.07918 13.5386 5.7916C11.8071 6.50402 10.2393 7.56396 8.93136 8.90627C7.57807 10.219 6.50865 11.7969 5.78964 13.5417C5.07063 15.2866 4.7174 17.1612 4.75193 19.0488C4.72719 20.9244 5.08517 22.7853 5.80389 24.5172C6.52261 26.2491 7.58689 27.8153 8.93136 29.1198C10.2332 30.475 11.7983 31.5482 13.5301 32.273C15.2619 32.9979 17.1235 33.3589 19 33.3339C20.8765 33.3589 22.7381 32.9979 24.4699 32.273C26.2017 31.5482 27.7668 30.475 29.0686 29.1198C30.4131 27.8153 31.4774 26.2491 32.1961 24.5172C32.9148 22.7853 33.2728 20.9244 33.2481 19.0488C33.2826 17.1612 32.9294 15.2866 32.2104 13.5417C31.4914 11.7969 30.4219 10.219 29.0686 8.90627C27.7607 7.56396 26.1929 6.50402 24.4614 5.7916C22.7299 5.07918 20.8713 4.72933 19 4.76356ZM37.9974 19.0488C37.9469 21.3341 37.4884 23.5919 36.6439 25.7152C35.883 27.8756 34.7318 29.8772 33.2481 31.6197V50L19 45.2383L4.75193 50V31.6197C1.67836 28.159 -0.0128617 23.6826 0.0025718 19.0488C-0.0392816 16.5502 0.430101 14.0696 1.38174 11.7601C2.33339 9.45054 3.74709 7.36107 5.53557 5.62067C7.27788 3.81145 9.37154 2.37944 11.6873 1.41304C14.0031 0.44664 16.4919 -0.0336447 19 0.00183134C21.5081 -0.0336447 23.9969 0.44664 26.3127 1.41304C28.6285 2.37944 30.7221 3.81145 32.4644 5.62067C34.2529 7.36107 35.6666 9.45054 36.6183 11.7601C37.5699 14.0696 38.0393 16.5502 37.9974 19.0488Z" fill="#FC0000"/>
</svg>
