<svg width="41" height="50" viewBox="0 0 41 50" fill="none" xmlns="http://www.w3.org/2000/svg">
<path d="M36.4444 4.54545V45.4545H22.7778V37.5H18.2222V45.4545H4.55556V4.54545H36.4444ZM27.3333 13.6364H31.8889V9.09091H27.3333V13.6364ZM18.2222 13.6364H22.7778V9.09091H18.2222V13.6364ZM9.11111 13.6364H13.6667V9.09091H9.11111V13.6364ZM27.3333 22.7273H31.8889V18.1818H27.3333V22.7273ZM18.2222 22.7273H22.7778V18.1818H18.2222V22.7273ZM9.11111 22.7273H13.6667V18.1818H9.11111V22.7273ZM27.3333 31.8182H31.8889V27.2727H27.3333V31.8182ZM18.2222 31.8182H22.7778V27.2727H18.2222V31.8182ZM9.11111 31.8182H13.6667V27.2727H9.11111V31.8182ZM27.3333 40.9091H31.8889V36.3636H27.3333V40.9091ZM9.11111 40.9091H13.6667V36.3636H9.11111V40.9091ZM41 0H0V50H41V0Z" fill="#FC0000"/>
</svg>
